# Alias OBJ Model File
# Exported from SketchUp, (c) 2000-2012 Trimble Navigation Limited
# File units = centimeters

mtllib ShipPhysicsBellowWater.mtl

g Mesh1 Model

usemtl FrontColor
v 0 -225 -0
vt 0 -88.5827
vn 0 0 1
v 37.5 -225 -0
vt 14.7638 -88.5827
v 65.625 -225 -0
vt 25.8366 -88.5827
v 75 -225 -0
vt 29.5276 -88.5827
v 75 0 -0
vt 29.5276 0
v 0 0 -0
vt 0 0
f 1/1/1 2/2/1 3/3/1 4/4/1 5/5/1 6/6/1 

v 0 -225 30
vt 0 -11.811
vn 0 1 -0
v 37.5 -225 30
vt 14.7638 -11.811
vt 14.7638 0
f 7/7/2 8/8/2 2/9/2 1/6/2 

v 0 -225 60
vt 0 -23.622
v 37.5 -225 42.8571
vt 14.7638 -16.8729
f 7/7/2 9/10/2 10/11/2 8/8/2 

vn 1 0 -0
v 0 112.5 -0
vt 0 44.2913
v 0 112.5 60
vt -23.622 44.2913
vt -23.622 -88.5827
vt -11.811 -88.5827
f 6/6/3 11/12/3 12/13/3 9/14/3 7/15/3 1/1/3 

v -75 112.5 -0
vt -29.5276 44.2913
v -75 0 -0
vt -29.5276 0
f 6/6/1 11/12/1 13/16/1 14/17/1 

v 75 112.5 -0
vt 29.5276 44.2913
f 5/5/1 15/18/1 11/12/1 6/6/1 

vt -8.80733 44.2913
vn -0.95448 -2.30702e-18 -0.298275
vt -8.80733 -6.50199e-17
vt -8.80733 -88.5827
v 65.625 -225 30
vt 3.56697 -88.5827
v 65.625 112.5 30
vt 3.56697 44.2913
f 15/19/4 5/20/4 4/21/4 16/22/4 17/23/4 

vt 25.8366 0
vt 25.8366 -11.811
f 4/5/2 3/24/2 16/25/2

f 8/8/2 16/25/2 3/24/2 2/9/2 

f 8/8/2 10/11/2 16/25/2

vt -18.5872 -88.5827
vn -0.41576 4.66309e-18 -0.909474
vt -6.41221 -88.5827
vt 9.8211 -88.5827
vt 9.8211 44.2913
vt -18.5872 44.2913
f 16/26/5 10/27/5 9/28/5 12/29/5 17/30/5 

vt -9.8211 -88.5827
vn 0.41576 2.79785e-18 -0.909474
v -37.5 -225 42.8571
vt 6.41221 -88.5827
v -65.625 -225 30
vt 18.5872 -88.5827
v -65.625 112.5 30
vt 18.5872 44.2913
vt -9.8211 44.2913
f 9/31/6 18/32/6 19/33/6 20/34/6 12/35/6 

v -37.5 -225 30
vt -14.7638 -11.811
vt -14.7638 -16.8729
f 21/36/2 18/37/2 9/10/2 7/7/2 

vt -25.8366 -11.811
f 21/36/2 19/38/2 18/37/2

v -37.5 -225 -0
vt -14.7638 0
v -65.625 -225 -0
vt -25.8366 0
f 22/39/2 23/40/2 19/38/2 21/36/2 

v -75 -225 -0
vt -29.5276 -88.5827
vt -25.8366 -88.5827
vt -14.7638 -88.5827
f 6/6/1 14/17/1 24/41/1 23/42/1 22/43/1 1/1/1 

vt 8.80733 44.2913
vn 0.95448 -1.15351e-18 -0.298275
vt -3.56697 44.2913
vt -3.56697 -88.5827
vt 8.80733 -88.5827
vt 8.80733 -3.25099e-17
f 13/44/7 20/45/7 19/46/7 24/47/7 14/48/7 

v -56.25 168.75 -0
vt 6.6055 56.9013
vn 0.909554 -0.303185 -0.284236
vt -3.56697 33.6618
vt 8.80733 33.6618
f 25/49/8 20/50/8 13/51/8

vt 17.2929 52.542
vn 0.554109 -0.461757 -0.692636
v 0 168.75 45
vt -11.0674 52.542
vt 12.7967 27.5752
f 25/52/9 26/53/9 20/54/9

vt -11.0674 49.0166
vn 0.529813 -0.529813 -0.662266
vt 17.2929 49.0166
v 0 225 -0
vt -3.55271e-15 75.1283
f 26/55/10 25/56/10 27/57/10

v 0 168.75 -0
vt 0 66.437
vt 0 88.5827
vt -22.1457 66.437
f 13/16/1 11/12/1 28/58/1 27/59/1 25/60/1 

v 56.25 168.75 -0
vt 22.1457 66.437
f 28/58/1 11/12/1 15/18/1 29/61/1 27/59/1 

vt -17.7165 66.437
f 28/58/3 26/62/3 12/13/3 11/12/3 

f 28/58/3 27/59/3 26/62/3

vt -17.2929 49.0166
vn -0.529813 -0.529813 -0.662266
vt 11.0674 49.0166
vt 3.55271e-15 75.1283
f 29/63/11 26/64/11 27/65/11

vt 11.0674 52.542
vn -0.554109 -0.461757 -0.692636
vt -17.2929 52.542
vt -12.7967 27.5752
f 26/66/12 29/67/12 17/68/12

vt 3.56697 33.6618
vn -0.909554 -0.303185 -0.284236
vt -6.6055 56.9013
vt -8.80733 33.6618
f 17/69/13 29/70/13 15/71/13

vt 7.36582 60.7676
vn -0.404047 -0.235694 -0.883852
vt -18.5872 37.98
vt 9.8211 37.98
f 26/72/14 17/73/14 12/74/14

vt 18.5872 37.98
vn 0.404047 -0.235694 -0.883852
vt -7.36582 60.7676
vt -9.8211 37.98
f 20/75/15 26/76/15 12/77/15

f 24/17/2 19/38/2 23/40/2

f 1/6/2 22/39/2 21/36/2 7/7/2 

